<svg xmlns="http://www.w3.org/2000/svg" width="1094" height="321.725" viewBox="0 0 1094 321.725">
  <g id="Grupo_1154" data-name="Grupo 1154" transform="translate(-395 -211.335)">
    <text id="conoce_conecta_convierte" data-name="conoce | conecta | convierte" transform="translate(395 385.431)" fill="#22e49e" font-size="87" font-family="OmnesSemiBold, Omnes"><tspan x="0" y="0">conoce | conecta | convierte</tspan></text>
    <g id="Layer_40" data-name="Layer 40" transform="matrix(-0.809, 0.588, -0.588, -0.809, 824.453, 291.362)">
      <path id="Trazado_24" data-name="Trazado 24" d="M130.328,98.919C74.263,98.866,28.86,60.4,28.91,12.987L7.515,31.079a5.111,5.111,0,0,1-6.2-.138A3.4,3.4,0,0,1,1.171,25.7L30.237,1.116a5.1,5.1,0,0,1,6.367,0L65.671,25.7a3.407,3.407,0,0,1,0,5.384,5.1,5.1,0,0,1-6.367,0L37.909,12.987c-.05,43.207,41.324,78.27,92.419,78.322,2.485,0,4.5,1.7,4.5,3.8s-2.014,3.8-4.5,3.8Z" transform="translate(0 0)"/>
    </g>
    <g id="Layer_40-2" data-name="Layer 40" transform="matrix(0.809, -0.588, 0.588, 0.809, 1042.424, 453.032)">
      <path id="Trazado_24-2" data-name="Trazado 24" d="M130.328,98.919C74.263,98.866,28.86,60.4,28.91,12.987L7.515,31.079a5.111,5.111,0,0,1-6.2-.138A3.4,3.4,0,0,1,1.171,25.7L30.237,1.116a5.1,5.1,0,0,1,6.367,0L65.671,25.7a3.407,3.407,0,0,1,0,5.384,5.1,5.1,0,0,1-6.367,0L37.909,12.987c-.05,43.207,41.324,78.27,92.419,78.322,2.485,0,4.5,1.7,4.5,3.8s-2.014,3.8-4.5,3.8Z" transform="translate(0 0)"/>
    </g>
    <g id="Layer_40-3" data-name="Layer 40" transform="matrix(-0.809, 0.588, -0.588, -0.809, 1209.645, 291.362)">
      <path id="Trazado_24-3" data-name="Trazado 24" d="M130.328,98.919C74.263,98.866,28.86,60.4,28.91,12.987L7.515,31.079a5.111,5.111,0,0,1-6.2-.138A3.4,3.4,0,0,1,1.171,25.7L30.237,1.116a5.1,5.1,0,0,1,6.367,0L65.671,25.7a3.407,3.407,0,0,1,0,5.384,5.1,5.1,0,0,1-6.367,0L37.909,12.987c-.05,43.207,41.324,78.27,92.419,78.322,2.485,0,4.5,1.7,4.5,3.8s-2.014,3.8-4.5,3.8Z" transform="translate(0 0)"/>
    </g>
    <g id="Layer_40-4" data-name="Layer 40" transform="matrix(0.809, -0.588, 0.588, 0.809, 657.232, 453.032)">
      <path id="Trazado_24-4" data-name="Trazado 24" d="M130.328,98.919C74.263,98.866,28.86,60.4,28.91,12.987L7.515,31.079a5.111,5.111,0,0,1-6.2-.138A3.4,3.4,0,0,1,1.171,25.7L30.237,1.116a5.1,5.1,0,0,1,6.367,0L65.671,25.7a3.407,3.407,0,0,1,0,5.384,5.1,5.1,0,0,1-6.367,0L37.909,12.987c-.05,43.207,41.324,78.27,92.419,78.322,2.485,0,4.5,1.7,4.5,3.8s-2.014,3.8-4.5,3.8Z" transform="translate(0 0)"/>
    </g>
  </g>
</svg>
