<svg id="Grupo_64" data-name="Grupo 64" xmlns="http://www.w3.org/2000/svg" width="12.942" height="10.75" viewBox="0 0 12.942 10.75">
  <path id="Trazado_169" data-name="Trazado 169" d="M.728,46.034l-.02,0h8.66L6.645,43.31a.715.715,0,0,1,0-1.005l.424-.424a.709.709,0,0,1,1,0l4.667,4.666a.714.714,0,0,1,0,1L8.069,52.218a.709.709,0,0,1-1,0l-.424-.424a.7.7,0,0,1-.206-.5.68.68,0,0,1,.206-.488L9.4,48.059H.718A.732.732,0,0,1,0,47.333v-.6a.719.719,0,0,1,.728-.7Z" transform="translate(0 -41.674)" fill="#fff"/>
</svg>
