<svg xmlns="http://www.w3.org/2000/svg" width="24.987" height="18.057" viewBox="0 0 24.987 18.057">
  <path id="youtube" d="M12.492,18.557h-.007c-.754-.005-7.419-.066-9.308-.577A3.862,3.862,0,0,1,.46,15.265,28.342,28.342,0,0,1,0,9.553,28.875,28.875,0,0,1,.458,3.8l0-.005A3.943,3.943,0,0,1,3.174,1.059l.01,0C5.051.565,11.729.505,12.485.5H12.5c.756.005,7.439.066,9.31.577a3.861,3.861,0,0,1,2.714,2.711,27.5,27.5,0,0,1,.46,5.785,28.42,28.42,0,0,1-.458,5.7v.005A3.863,3.863,0,0,1,21.8,18L21.8,18c-1.867.491-8.546.551-9.3.556ZM2.345,4.3A27.923,27.923,0,0,0,1.953,9.54v.026a26.238,26.238,0,0,0,.393,5.194A1.9,1.9,0,0,0,3.685,16.1a65.338,65.338,0,0,0,8.806.509,67.985,67.985,0,0,0,8.809-.491,1.9,1.9,0,0,0,1.337-1.335,26.328,26.328,0,0,0,.393-5.193c0-.01,0-.021,0-.031A25.412,25.412,0,0,0,22.64,4.3v0A1.9,1.9,0,0,0,21.3,2.961c-1.38-.377-6.817-.5-8.806-.509a68.077,68.077,0,0,0-8.807.491A1.958,1.958,0,0,0,2.345,4.3ZM23.581,15.029h0ZM10,13.481V5.575l6.832,3.953Zm0,0" transform="translate(0.001 -0.5)"/>
</svg>
