<svg id="_x31_0.Linkedin" xmlns="http://www.w3.org/2000/svg" width="17.898" height="17.898" viewBox="0 0 17.898 17.898">
  <path id="Path_17487" data-name="Path 17487" d="M49.867,47.538V40.983c0-3.222-.694-5.683-4.452-5.683A3.885,3.885,0,0,0,41.9,37.224h-.045V35.591H38.3V47.538h3.714V41.609c0-1.566.291-3.065,2.215-3.065,1.9,0,1.924,1.767,1.924,3.155v5.817h3.714Z" transform="translate(-31.968 -29.64)" fill="#454545"/>
  <path id="Path_17488" data-name="Path 17488" d="M11.3,36.6h3.714V48.547H11.3Z" transform="translate(-11.009 -30.649)" fill="#454545"/>
  <path id="Path_17489" data-name="Path 17489" d="M12.148,10A2.159,2.159,0,1,0,14.3,12.148,2.148,2.148,0,0,0,12.148,10Z" transform="translate(-10 -10)" fill="#454545"/>
</svg>
