<svg id="Grupo_1788" data-name="Grupo 1788" xmlns="http://www.w3.org/2000/svg" width="41.455" height="43.164" viewBox="0 0 41.455 43.164">
  <ellipse id="Elipse_83" data-name="Elipse 83" cx="18.953" cy="19.638" rx="18.953" ry="19.638" transform="translate(0 3.888)" fill="#20e49e"/>
  <ellipse id="Elipse_84" data-name="Elipse 84" cx="4.63" cy="4.814" rx="4.63" ry="4.814" transform="translate(32.195)" fill="#20e49e"/>
  <path id="Trazado_16673" data-name="Trazado 16673" d="M4334.278,1045.136v-15.5h2.154l.139,2.011a7.069,7.069,0,0,1,4.835-2.011q3.352,0,4.572,2.193a7.754,7.754,0,0,1,5.1-2.193q5.32,0,5.319,6.077v9.424h-2.717v-9.576q0-3.579-2.91-3.579a5.506,5.506,0,0,0-4.073,2.071v11.084h-2.719v-9.53q0-3.625-2.881-3.625a5.348,5.348,0,0,0-4.1,2.071v11.084Z" transform="translate(-4325.911 -1014.024)" fill="#fff"/>
</svg>
