<svg xmlns="http://www.w3.org/2000/svg" width="21.031" height="20.935" viewBox="0 0 21.031 20.935">
  <g id="Group_23469" data-name="Group 23469" transform="translate(-1161.647 -2446.618)">
    <path id="Path_17504" data-name="Path 17504" d="M219.454,66.969a4.579,4.579,0,0,0,3.446-2.521c.9-1.8,1.285-7.349,3.02-7.433,2.96-.147,2.939,6.064,1.971,7.846.809.042,6.069.229,6.392.365a2.372,2.372,0,0,1,1.33,2,2.463,2.463,0,0,1-1.08,1.74,2.435,2.435,0,0,1,.636,1.128c.292,1.046-.557,1.719-1.238,2.079a2.536,2.536,0,0,1,.394.9c.152.733-.594,1.354-1.183,1.722a2.87,2.87,0,0,1,.392,1.038,2.051,2.051,0,0,1-1.188,2.061.541.541,0,0,1-.284.053l-10.771-.384a.538.538,0,0,1-.273-.084l-1.769-1.12a.551.551,0,0,1-.255-.489l-.045-8.35a.548.548,0,0,1,.5-.549Z" transform="translate(947.064 2389.606)"/>
    <path id="Path_17505" data-name="Path 17505" d="M126.49,271.88h2.652a.549.549,0,0,1,.549.549v7.99a.551.551,0,0,1-.549.552H126.49a.552.552,0,0,1-.552-.552v-7.99A.55.55,0,0,1,126.49,271.88Z" transform="translate(1035.709 2184.823)"/>
  </g>
</svg>
