<svg xmlns="http://www.w3.org/2000/svg" width="19.598" height="15.948" viewBox="0 0 19.598 15.948">
  <path id="_x30_4.Twitter" d="M29.5,19.386a8.242,8.242,0,0,1-2.3.637,3.919,3.919,0,0,0,1.764-2.229,8.461,8.461,0,0,1-2.548.98,4.021,4.021,0,0,0-6.957,2.744,3.673,3.673,0,0,0,.1.906A11.309,11.309,0,0,1,11.3,18.235,4.032,4.032,0,0,0,12.521,23.6a3.857,3.857,0,0,1-1.813-.49A4.06,4.06,0,0,0,13.918,27.1a4.409,4.409,0,0,1-1.813.073,4.034,4.034,0,0,0,3.748,2.793A8.094,8.094,0,0,1,9.9,31.635a11.416,11.416,0,0,0,17.589-9.6,3.618,3.618,0,0,0-.024-.514A7.974,7.974,0,0,0,29.5,19.386Z" transform="translate(-9.9 -17.5)" fill="#767676"/>
</svg>
