<svg id="noun-like-1298941" xmlns="http://www.w3.org/2000/svg" width="22.224" height="20.935" viewBox="0 0 22.224 20.935">
  <path id="Path_17503" data-name="Path 17503" d="M117.235,71.149a1.9,1.9,0,0,1-.335-.04,2.087,2.087,0,0,1-1.594-1.969,11.6,11.6,0,0,0-2.3-7.27,1.274,1.274,0,0,1-1.076.606h-4.592a1.284,1.284,0,0,1-1.275-1.275V52.017a1.284,1.284,0,0,1,1.275-1.275h4.592a1.277,1.277,0,0,1,1.06.574,6.921,6.921,0,0,1,.765-.558,3.606,3.606,0,0,1,1.546-.47c1.3-.135,3.435-.035,8.362-.056a.517.517,0,0,1,.319.12,4.218,4.218,0,0,1,1.618,2.455.514.514,0,0,1,.247.167,3.652,3.652,0,0,1,.837,2.918.512.512,0,0,1,.183.143,3.548,3.548,0,0,1,.733,3.3,2.7,2.7,0,0,1,.67,2.041,2.18,2.18,0,0,1-1.547,1.865h-6.569a10.507,10.507,0,0,1-.741,6.5,2.622,2.622,0,0,1-1.841,1.4,1.813,1.813,0,0,1-.335.016Zm1.291-1.913a10.2,10.2,0,0,0,.55-6.409.534.534,0,0,1,.5-.606h7a1.211,1.211,0,0,0,.678-.957,1.735,1.735,0,0,0-.534-1.339h-3.067a.51.51,0,1,1,0-1.02h3a2.5,2.5,0,0,0-.47-2.041h-2.533a.51.51,0,1,1,0-1.02h1.983a2.5,2.5,0,0,0-.47-2.041h-1.513a.51.51,0,1,1,0-1.02h.9a3.024,3.024,0,0,0-1.108-1.531c-4.741.016-6.94-.059-8.043.056a2.414,2.414,0,0,0-1.124.319,12.169,12.169,0,0,0-1.076.829v7.956a13.517,13.517,0,0,1,3.125,8.689c.341,1.563,1.719,1.132,2.2.136Zm-11.192-7.78h4.592a.244.244,0,0,0,.255-.255V52.017a.244.244,0,0,0-.255-.255h-4.592a.244.244,0,0,0-.255.255V61.2A.244.244,0,0,0,107.335,61.456Z" transform="translate(-106.059 -50.215)"/>
</svg>
