<svg xmlns="http://www.w3.org/2000/svg" xmlns:xlink="http://www.w3.org/1999/xlink" width="232.06" height="652.347" viewBox="0 0 232.06 652.347">
  <defs>
    <clipPath id="clip-path">
      <rect id="Rectángulo_5356" data-name="Rectángulo 5356" width="609.184" height="161.734" transform="translate(0 0)" fill="none"/>
    </clipPath>
  </defs>
  <g id="Grupo_23611" data-name="Grupo 23611" transform="translate(-878 -1922.837)">
    <g id="Grupo_21706" data-name="Grupo 21706" transform="translate(1039.738 1966) rotate(90)">
      <g id="Grupo_21702" data-name="Grupo 21702" transform="translate(0 0.004)" clip-path="url(#clip-path)">
        <g id="Grupo_21707" data-name="Grupo 21707" transform="translate(2.937 158.797) rotate(-90)">
          <path id="Trazado_17454" data-name="Trazado 17454" d="M468.276,444.571a4.879,4.879,0,0,0-4.817,4.157,60,60,0,0,1-26.813,9.256H421.467a8.463,8.463,0,0,0,0,16.926h.983l-2.243,14.876a1.128,1.128,0,0,0,1.115,1.3H427.3a1.128,1.128,0,0,0,1.067-.763l5.275-15.409h3a70.809,70.809,0,0,1,27.1,9.642,4.873,4.873,0,0,0,9.417-1.766V449.447a4.882,4.882,0,0,0-4.876-4.876M415.26,466.447a6.214,6.214,0,0,1,6.207-6.207H435.6v12.414H421.467a6.214,6.214,0,0,1-6.207-6.207m11.229,22.379h-3.857l2.1-13.916h6.522Zm11.364-16.02V460.129a62.254,62.254,0,0,0,25.547-8.7v30.307a73.055,73.055,0,0,0-25.547-8.927m33.043,9.981a2.62,2.62,0,0,1-5.128.757l-.006-.023a2.608,2.608,0,0,1-.107-.734V449.447c0-.007,0-.013,0-.019s0-.027,0-.041a2.619,2.619,0,0,1,5.237.06Z" transform="translate(-362.212 -389.896)" fill="#3e4fbd"/>
          <path id="Trazado_17455" data-name="Trazado 17455" d="M475.848,594.733H484.5a1.128,1.128,0,0,0,0-2.256h-8.655a1.128,1.128,0,0,0,0,2.256" transform="translate(-416.338 -519.613)" fill="#3e4fbd"/>
          <path id="Trazado_17456" data-name="Trazado 17456" d="M485.631,629.347a1.128,1.128,0,0,0-1.128-1.128h-8.655a1.128,1.128,0,1,0,0,2.256H484.5a1.128,1.128,0,0,0,1.128-1.128" transform="translate(-416.338 -550.959)" fill="#3e4fbd"/>
        </g>
        <path id="Trazado_17457" data-name="Trazado 17457" d="M80.867,161.737A80.866,80.866,0,0,1,23.685,23.689,80.867,80.867,0,1,1,138.048,138.052a80.337,80.337,0,0,1-57.181,23.685m0-146.975a66.109,66.109,0,1,0,66.109,66.109A66.183,66.183,0,0,0,80.867,14.762" transform="translate(0 -0.004)" fill="#3e4fbd"/>
        <g id="Grupo_21710" data-name="Grupo 21710">
          <path id="Trazado_17458" data-name="Trazado 17458" d="M1244.076,612.3h-44.652c-2.4,0-4.34-3.3-4.34-7.379s1.943-7.379,4.34-7.379h44.652c2.4,0,4.34,3.3,4.34,7.379s-1.943,7.379-4.34,7.379" transform="translate(-1043.07 -524.059)" fill="#3e4fbd"/>
          <path id="Trazado_17459" data-name="Trazado 17459" d="M1665.316,470.966a7.379,7.379,0,0,1-5.736-12.015l15.235-18.866-15.209-18.62a7.379,7.379,0,0,1,11.43-9.336l19,23.262a7.379,7.379,0,0,1,.026,9.3l-19,23.529a7.365,7.365,0,0,1-5.746,2.743" transform="translate(-1483.043 -359.065)" fill="#3e4fbd"/>
        </g>
        <g id="Grupo_21711" data-name="Grupo 21711" transform="translate(201)">
          <path id="Trazado_17458-2" data-name="Trazado 17458" d="M1244.076,612.3h-44.652c-2.4,0-4.34-3.3-4.34-7.379s1.943-7.379,4.34-7.379h44.652c2.4,0,4.34,3.3,4.34,7.379s-1.943,7.379-4.34,7.379" transform="translate(-1043.07 -524.059)" fill="#6736b8"/>
          <path id="Trazado_17459-2" data-name="Trazado 17459" d="M1665.316,470.966a7.379,7.379,0,0,1-5.736-12.015l15.235-18.866-15.209-18.62a7.379,7.379,0,0,1,11.43-9.336l19,23.262a7.379,7.379,0,0,1,.026,9.3l-19,23.529a7.365,7.365,0,0,1-5.746,2.743" transform="translate(-1483.043 -359.065)" fill="#6736b8"/>
        </g>
        <g id="Grupo_21709" data-name="Grupo 21709" transform="translate(-21.71)">
          <path id="Trazado_17460" data-name="Trazado 17460" d="M2299.718,442.917a14.07,14.07,0,1,0,4.122,9.95,13.978,13.978,0,0,0-4.122-9.95m-1.505,18.394a11.941,11.941,0,1,1,3.5-8.444,11.864,11.864,0,0,1-3.5,8.444" transform="translate(-158.171 2378.352) rotate(-90)" fill="#6736b8"/>
          <path id="Trazado_17461" data-name="Trazado 17461" d="M2319.1,499.354a1.064,1.064,0,1,0-1.505-1.506,9.119,9.119,0,0,0-2.269,3.72,9.236,9.236,0,0,0,2.267,9.351,1.064,1.064,0,0,0,1.505-1.506,7.106,7.106,0,0,1-1.744-7.2,7.018,7.018,0,0,1,1.746-2.86" transform="translate(-209.687 2412.718) rotate(-90)" fill="#6736b8"/>
          <path id="Trazado_17462" data-name="Trazado 17462" d="M2283.832,438.235a1.065,1.065,0,0,0-1.505,0l-.766.766-3.52-3.52a17.826,17.826,0,1,0-4.319,4.747l3.306,3.306-.421.421a1.064,1.064,0,0,0,0,1.505l17.9,17.9a1.064,1.064,0,0,0,1.505,0l5.719-5.719a1.064,1.064,0,0,0,0-1.506Zm-32.038-1.077a15.711,15.711,0,1,1,22.219,0,15.729,15.729,0,0,1-22.219,0m23.545,1.675c.059-.058.12-.111.179-.17a17.911,17.911,0,0,0,1.275-1.42l3.263,3.264-1.522,1.522Zm19.919,22.267-16.392-16.393,3.438-3.438.011-.009.009-.011.756-.756,16.393,16.393Z" transform="translate(-131.352 2351.487) rotate(-90)" fill="#6736b8"/>
        </g>
        <path id="Trazado_17463" data-name="Trazado 17463" d="M1947.384,161.752a80.887,80.887,0,0,1-73.375-46.827,7.379,7.379,0,0,1,13.383-6.22,66.112,66.112,0,1,0-.142-55.323,7.379,7.379,0,0,1-13.417-6.148,80.876,80.876,0,1,1,73.551,114.519" transform="translate(-1664.504 -0.017)" fill="#6736b8"/>
        <g id="Grupo_21708" data-name="Grupo 21708" transform="translate(408.24 611.34) rotate(-90)">
          <path id="Trazado_17466" data-name="Trazado 17466" d="M4177.142,450.959a14.793,14.793,0,0,0-16.415-14.714l-1.009-10.8a1.039,1.039,0,0,0-1.035-.944h-5.443v-.167a9.678,9.678,0,1,0-19.356,0v.167h-7.939a1.041,1.041,0,0,0-1.036.944l-3.653,39.184a1.04,1.04,0,0,0,1.035,1.137h40.057a14.82,14.82,0,0,0,14.8-14.8m-41.179-26.626a7.6,7.6,0,0,1,15.2,0v.167h-15.2Zm-9.072,2.247h30.843l.938,10.036a14.8,14.8,0,0,0-3.889,27.068h-31.351Zm35.447,37.1a12.723,12.723,0,1,1,12.723-12.723,12.738,12.738,0,0,1-12.723,12.723" transform="translate(-3614.405 -363.658)" fill="#a220b5"/>
          <path id="Trazado_17467" data-name="Trazado 17467" d="M4399.766,665.029l-10.181,10.181-3.821-3.821a1.04,1.04,0,0,0-1.471,1.471l4.556,4.556a1.04,1.04,0,0,0,1.471,0l10.916-10.916a1.04,1.04,0,0,0-1.471-1.471" transform="translate(-3844.832 -582.975)" fill="#a220b5"/>
        </g>
        <path id="Trazado_17468" data-name="Trazado 17468" d="M3766.526,161.752a80.888,80.888,0,0,1-73.379-46.827,7.379,7.379,0,1,1,13.383-6.22,66.111,66.111,0,1,0-.142-55.323,7.379,7.379,0,0,1-13.416-6.148,80.878,80.878,0,1,1,73.555,114.519" transform="translate(-3280.209 -0.017)" fill="#a220b5"/>
      </g>
    </g>
    <g id="Layer_40" data-name="Layer 40" transform="translate(1110.06 1952.598) rotate(135)">
      <path id="Trazado_24" data-name="Trazado 24" d="M55.453,42.088C31.6,42.066,12.28,25.7,12.3,5.526l-9.1,7.7a2.174,2.174,0,0,1-2.639-.059A1.444,1.444,0,0,1,.5,10.933L12.865.475a2.169,2.169,0,0,1,2.709,0L27.942,10.933a1.45,1.45,0,0,1,0,2.291,2.171,2.171,0,0,1-2.709,0l-9.1-7.7c-.021,18.384,17.583,33.3,39.323,33.325a1.642,1.642,0,1,1,0,3.238Z" transform="translate(0 0)"/>
    </g>
    <g id="Layer_40-2" data-name="Layer 40" transform="translate(1110.06 2171.598) rotate(135)">
      <path id="Trazado_24-2" data-name="Trazado 24" d="M55.453,42.088C31.6,42.066,12.28,25.7,12.3,5.526l-9.1,7.7a2.174,2.174,0,0,1-2.639-.059A1.444,1.444,0,0,1,.5,10.933L12.865.475a2.169,2.169,0,0,1,2.709,0L27.942,10.933a1.45,1.45,0,0,1,0,2.291,2.171,2.171,0,0,1-2.709,0l-9.1-7.7c-.021,18.384,17.583,33.3,39.323,33.325a1.642,1.642,0,1,1,0,3.238Z" transform="translate(0 0)"/>
    </g>
    <g id="Layer_40-3" data-name="Layer 40" transform="translate(1110.06 2375.435) rotate(135)">
      <path id="Trazado_24-3" data-name="Trazado 24" d="M55.453,42.088C31.6,42.066,12.28,25.7,12.3,5.526l-9.1,7.7a2.174,2.174,0,0,1-2.639-.059A1.444,1.444,0,0,1,.5,10.933L12.865.475a2.169,2.169,0,0,1,2.709,0L27.942,10.933a1.45,1.45,0,0,1,0,2.291,2.171,2.171,0,0,1-2.709,0l-9.1-7.7c-.021,18.384,17.583,33.3,39.323,33.325a1.642,1.642,0,1,1,0,3.238Z" transform="translate(0 0)"/>
    </g>
  </g>
</svg>
