<svg xmlns="http://www.w3.org/2000/svg" xmlns:xlink="http://www.w3.org/1999/xlink" width="986.419" height="330" viewBox="0 0 986.419 330">
  <defs>
    <clipPath id="clip-path">
      <rect id="Rectángulo_5356" data-name="Rectángulo 5356" width="986.419" height="261.888" transform="translate(0 0)" fill="none"/>
    </clipPath>
  </defs>
  <g id="Grupo_23609" data-name="Grupo 23609" transform="translate(-357 -854)">
    <g id="Grupo_21703" data-name="Grupo 21703" transform="translate(357 853.996)">
      <g id="Grupo_21702" data-name="Grupo 21702" transform="translate(0 0.004)" clip-path="url(#clip-path)">
        <path id="Trazado_17454" data-name="Trazado 17454" d="M502.5,444.571a7.9,7.9,0,0,0-7.8,6.732,97.147,97.147,0,0,1-43.417,14.987H426.707a13.7,13.7,0,0,0,0,27.407H428.3l-3.633,24.088a1.826,1.826,0,0,0,1.806,2.1h9.673a1.826,1.826,0,0,0,1.728-1.235l8.542-24.952h4.854a114.656,114.656,0,0,1,43.882,15.613,7.891,7.891,0,0,0,15.248-2.859V452.467a7.9,7.9,0,0,0-7.9-7.9m-85.846,35.422a10.062,10.062,0,0,1,10.05-10.05h22.878v20.1H426.707a10.062,10.062,0,0,1-10.05-10.051m18.183,36.237h-6.245l3.4-22.534h10.56Zm18.4-25.94V469.762a100.8,100.8,0,0,0,41.367-14.092v49.074A118.293,118.293,0,0,0,453.24,490.29m53.505,16.161a4.242,4.242,0,0,1-8.3,1.226l-.01-.037a4.226,4.226,0,0,1-.173-1.189V452.467c0-.011,0-.021,0-.031s0-.044,0-.066a4.241,4.241,0,0,1,8.481.1Z" transform="translate(-330.758 -356.04)" fill="#3e4fbd"/>
        <path id="Trazado_17455" data-name="Trazado 17455" d="M476.547,596.13h14.014a1.827,1.827,0,0,0,0-3.653H476.547a1.827,1.827,0,1,0,0,3.653" transform="translate(-380.184 -474.492)" fill="#3e4fbd"/>
        <path id="Trazado_17456" data-name="Trazado 17456" d="M492.387,630.046a1.827,1.827,0,0,0-1.827-1.827H476.547a1.827,1.827,0,1,0,0,3.653h14.014a1.827,1.827,0,0,0,1.827-1.826" transform="translate(-380.184 -503.116)" fill="#3e4fbd"/>
        <path id="Trazado_17457" data-name="Trazado 17457" d="M130.943,261.89A130.943,130.943,0,0,1,38.352,38.356,130.943,130.943,0,1,1,223.534,223.538a130.086,130.086,0,0,1-92.591,38.352m0-237.989A107.046,107.046,0,1,0,237.989,130.947,107.167,107.167,0,0,0,130.943,23.9" transform="translate(0 -0.004)" fill="#3e4fbd"/>
        <path id="Trazado_17458" data-name="Trazado 17458" d="M1329.973,621.443h-122.94a11.948,11.948,0,0,1,0-23.9h122.94a11.948,11.948,0,0,1,0,23.9" transform="translate(-957.096 -478.552)" fill="#3e4fbd"/>
        <path id="Trazado_17459" data-name="Trazado 17459" d="M1669.883,509.08a11.949,11.949,0,0,1-9.289-19.456l24.669-30.549-24.627-30.151a11.948,11.948,0,0,1,18.508-15.117l30.766,37.666a11.949,11.949,0,0,1,.042,15.066l-30.766,38.1a11.926,11.926,0,0,1-9.3,4.442" transform="translate(-1327.779 -327.886)" fill="#3e4fbd"/>
        <path id="Trazado_17460" data-name="Trazado 17460" d="M2314.588,445.469a22.783,22.783,0,1,0,6.674,16.111,22.634,22.634,0,0,0-6.674-16.111m-2.437,29.784a19.336,19.336,0,1,1,5.664-13.673,19.21,19.21,0,0,1-5.664,13.673" transform="translate(-1822.52 -351.415)" fill="#6736b8"/>
        <path id="Trazado_17461" data-name="Trazado 17461" d="M2321.715,500.479a1.724,1.724,0,1,0-2.437-2.438,14.77,14.77,0,0,0-3.674,6.023,14.957,14.957,0,0,0,3.671,15.142,1.724,1.724,0,1,0,2.437-2.438,11.507,11.507,0,0,1-2.823-11.658,11.36,11.36,0,0,1,2.827-4.631" transform="translate(-1853.902 -398.458)" fill="#6736b8"/>
        <path id="Trazado_17462" data-name="Trazado 17462" d="M2307.835,456.823a1.724,1.724,0,0,0-2.437,0l-1.24,1.24-5.7-5.7a28.863,28.863,0,1,0-6.993,7.686l5.353,5.353-.682.682a1.724,1.724,0,0,0,0,2.438l28.981,28.981a1.724,1.724,0,0,0,2.438,0l9.261-9.261a1.723,1.723,0,0,0,0-2.438Zm-51.878-1.744a25.44,25.44,0,1,1,35.977,0,25.469,25.469,0,0,1-35.977,0m38.125,2.713c.1-.093.195-.18.289-.275a29.041,29.041,0,0,0,2.064-2.3l5.284,5.285-2.464,2.464Zm32.254,36.055L2299.793,467.3l5.566-5.567c.006-.005.012-.009.018-.015s.009-.012.015-.018l1.224-1.224,26.544,26.544Z" transform="translate(-1797.988 -326.925)" fill="#6736b8"/>
        <path id="Trazado_17463" data-name="Trazado 17463" d="M1993.347,261.9a130.975,130.975,0,0,1-118.813-75.825,11.948,11.948,0,0,1,21.67-10.072,107.051,107.051,0,1,0-.229-89.582,11.949,11.949,0,0,1-21.725-9.955,130.959,130.959,0,1,1,119.1,185.434" transform="translate(-1500.14 -0.016)" fill="#6736b8"/>
        <path id="Trazado_17464" data-name="Trazado 17464" d="M3150.232,621.443H3026.181a11.948,11.948,0,1,1,0-23.9h124.051a11.948,11.948,0,1,1,0,23.9" transform="translate(-2413.979 -478.552)" fill="#6736b8"/>
        <path id="Trazado_17465" data-name="Trazado 17465" d="M3494.608,509.079a11.949,11.949,0,0,1-9.289-19.456l24.67-30.549-24.627-30.151a11.948,11.948,0,1,1,18.507-15.117l30.766,37.666a11.95,11.95,0,0,1,.043,15.066l-30.766,38.1a11.927,11.927,0,0,1-9.3,4.442" transform="translate(-2789.128 -327.885)" fill="#6736b8"/>
        <path id="Trazado_17466" data-name="Trazado 17466" d="M4211.753,473.441a23.952,23.952,0,0,0-26.58-23.826l-1.634-17.491a1.683,1.683,0,0,0-1.677-1.528h-8.813v-.27a15.672,15.672,0,1,0-31.343,0v.27H4128.85a1.684,1.684,0,0,0-1.677,1.528l-5.917,63.448a1.685,1.685,0,0,0,1.677,1.841h64.861a24,24,0,0,0,23.958-23.971m-66.678-43.115a12.3,12.3,0,0,1,24.606,0v.27h-24.606Zm-14.69,3.638h49.943l1.518,16.25a23.964,23.964,0,0,0-6.3,43.829h-50.766Zm57.4,60.078a20.6,20.6,0,1,1,20.6-20.6,20.626,20.626,0,0,1-20.6,20.6" transform="translate(-3300.544 -332.08)" fill="#a220b5"/>
        <path id="Trazado_17467" data-name="Trazado 17467" d="M4409.536,665.218,4393.05,681.7l-6.187-6.187a1.685,1.685,0,0,0-2.382,2.382l7.378,7.378a1.684,1.684,0,0,0,2.382,0l17.676-17.676a1.684,1.684,0,0,0-2.382-2.382" transform="translate(-3510.961 -532.352)" fill="#a220b5"/>
        <path id="Trazado_17468" data-name="Trazado 17468" d="M3812.491,261.9a130.978,130.978,0,0,1-118.819-75.825,11.948,11.948,0,1,1,21.67-10.072,107.05,107.05,0,1,0-.23-89.582,11.948,11.948,0,1,1-21.724-9.955,130.961,130.961,0,1,1,119.1,185.434" transform="translate(-2957.015 -0.016)" fill="#a220b5"/>
      </g>
    </g>
    <text id="Awareness" transform="translate(427 1173)" fill="#3e4fbd" font-size="25" font-family="OmnesSemiBold, Omnes"><tspan x="0" y="0">Awareness</tspan></text>
    <text id="Consideración" transform="translate(775 1176)" fill="#6736b8" font-size="25" font-family="OmnesSemiBold, Omnes"><tspan x="0" y="0">Consideración</tspan></text>
    <text id="Conversión" transform="translate(1163 1176)" fill="#a220b5" font-size="25" font-family="OmnesSemiBold, Omnes"><tspan x="0" y="0">Conversión</tspan></text>
  </g>
</svg>
