<svg id="Grupo_1745" data-name="Grupo 1745" xmlns="http://www.w3.org/2000/svg" xmlns:xlink="http://www.w3.org/1999/xlink" width="1296.001" height="691.424" viewBox="0 0 1296.001 691.424">
  <defs>
    <clipPath id="clip-path">
      <rect id="Rectángulo_54" data-name="Rectángulo 54" width="1296.001" height="691.424" fill="none"/>
    </clipPath>
  </defs>
  <path id="Trazado_16683" data-name="Trazado 16683" d="M7.262,668.22l-3.113-3.982L427.334,333.344l1.142.232L848.3,419.034,1268.864,4.076l3.544,3.6L849.933,424.523l-1.321-.266-420-85.5Z" transform="translate(9.829 9.658)" fill="#3199ff"/>
  <g id="Grupo_1744" data-name="Grupo 1744">
    <g id="Grupo_1743" data-name="Grupo 1743" clip-path="url(#clip-path)">
      <path id="Trazado_16684" data-name="Trazado 16684" d="M0,211.535A15.535,15.535,0,1,1,15.535,227.07,15.533,15.533,0,0,1,0,211.535" transform="translate(0 464.353)" fill="#3199ff"/>
      <path id="Trazado_16685" data-name="Trazado 16685" d="M0,143.961A15.535,15.535,0,1,1,15.535,159.5,15.536,15.536,0,0,1,0,143.961" transform="translate(0 304.26)" fill="#6736b8"/>
      <path id="Trazado_16686" data-name="Trazado 16686" d="M124.748,45.094a15.535,15.535,0,1,1,15.535,15.535,15.538,15.538,0,0,1-15.535-15.535" transform="translate(295.547 70.02)" fill="#6736b8"/>
      <path id="Trazado_16687" data-name="Trazado 16687" d="M250.333,158.868A15.535,15.535,0,1,1,265.868,174.4a15.533,15.533,0,0,1-15.535-15.535" transform="translate(593.076 339.577)" fill="#6736b8"/>
      <path id="Trazado_16688" data-name="Trazado 16688" d="M375.444,80.006a15.535,15.535,0,1,1,15.535,15.535,15.533,15.533,0,0,1-15.535-15.535" transform="translate(889.483 152.741)" fill="#6736b8"/>
      <path id="Trazado_16689" data-name="Trazado 16689" d="M125.333,113.535a15.535,15.535,0,1,1,15.535,15.535,15.533,15.533,0,0,1-15.535-15.535" transform="translate(296.933 232.177)" fill="#3199ff"/>
      <path id="Trazado_16690" data-name="Trazado 16690" d="M250.333,139.035a15.535,15.535,0,1,1,15.535,15.535,15.533,15.533,0,0,1-15.535-15.535" transform="translate(593.076 292.59)" fill="#3199ff"/>
      <path id="Trazado_16691" data-name="Trazado 16691" d="M375.444,15.535A15.535,15.535,0,1,1,390.979,31.07a15.533,15.533,0,0,1-15.535-15.535" transform="translate(889.483)" fill="#3199ff"/>
      <path id="Trazado_16692" data-name="Trazado 16692" d="M848.851,422.991l-1.422-1.29L426,39.8,7.285,371.645l-3.14-3.962,422.074-334.5L849.4,416.667,1269.294,151.9l2.7,4.279Z" transform="translate(9.82 78.618)" fill="#6736b8"/>
      <path id="Trazado_16693" data-name="Trazado 16693" d="M425.314,474.143l-1.584-1.573L4.083,56.668l3.558-3.591L425.7,467.412,847.357,136.595l1.348.536,421.144,166.4-1.856,4.7L848.2,142.359Z" transform="translate(9.673 125.747)" fill="#ff1765"/>
      <path id="Trazado_16694" data-name="Trazado 16694" d="M0,64.535A15.535,15.535,0,1,1,15.535,80.07,15.533,15.533,0,0,1,0,64.535" transform="translate(0 116.088)" fill="#ff1765"/>
      <path id="Trazado_16695" data-name="Trazado 16695" d="M124.424,187.979a15.535,15.535,0,1,1,15.535,15.535,15.533,15.533,0,0,1-15.535-15.535" transform="translate(294.779 408.546)" fill="#ff1765"/>
      <path id="Trazado_16696" data-name="Trazado 16696" d="M250.333,89.228a15.535,15.535,0,1,1,15.535,15.535,15.533,15.533,0,0,1-15.535-15.535" transform="translate(593.076 174.59)" fill="#ff1765"/>
      <path id="Trazado_16697" data-name="Trazado 16697" d="M374.889,139.035a15.535,15.535,0,1,1,15.535,15.535,15.535,15.535,0,0,1-15.535-15.535" transform="translate(888.168 292.59)" fill="#ff1765"/>
    </g>
  </g>
</svg>
