<svg xmlns="http://www.w3.org/2000/svg" width="36" height="36" viewBox="0 0 36 36">
  <g id="Group_1726" data-name="Group 1726" transform="translate(-304 -2925)">
    <circle id="Ellipse_31" data-name="Ellipse 31" cx="18" cy="18" r="18" transform="translate(304 2925)" fill="#fff"/>
    <g id="Grupo_64" data-name="Grupo 64" transform="translate(328.354 2935.12) rotate(90)">
      <path id="Trazado_169" data-name="Trazado 169" d="M.886,46.983l-.025.005H11.407L8.092,43.666a.87.87,0,0,1,0-1.224l.516-.516a.863.863,0,0,1,1.218,0l5.683,5.682a.869.869,0,0,1,0,1.222L9.826,54.513a.864.864,0,0,1-1.218,0L8.092,54a.854.854,0,0,1-.251-.609.828.828,0,0,1,.251-.595l3.353-3.345H.874A.892.892,0,0,1,0,48.565v-.73a.876.876,0,0,1,.886-.852Z" transform="translate(0 -41.674)"/>
    </g>
  </g>
</svg>
